<svg xmlns="http://www.w3.org/2000/svg" viewBox="0 0 400 128.16"><path d="M397.53 45.19c-.14-26-13.66-42.54-37.11-42.54S321.81 20 321.81 45.49s15.06 42.89 38.61 42.89c17.73 0 30.16-8.38 35.58-23.86l-14.77-3.78c-2.68 16.22-10.09 23.4-20.81 23.4-13.63 0-21.93-11.48-21.93-38.64v-.31zM360.42 6.85c12.75 0 19.42 9.48 20.23 33.49h-42.04c1.01-23.46 9.08-33.49 21.81-33.49zm-75.84 31.91L276 36.34c-11-3.07-16.24-8.45-16.24-15.22 0-7.86 7.18-14.26 14.91-14.26 10.17 0 16.68 6.16 18.62 20.69l13.52-3.46C304.06 10.14 290.68 2.6 274.7 2.6c-12.83 0-26.15 9-26.15 23.3 0 11.24 7.63 19.81 22.31 24l8.55 2.42c10.5 2.91 18.59 7.14 18.59 15.74 0 8.24-7.73 16.08-18 16.08-10.72 0-18.57-7.09-20.81-23.4l-14.1 3.61c3 15.51 17.18 24 34.91 24 17.24.04 30-11.55 30-25.58s-10.09-19.65-25.42-24.01zM40 2.6c-9.64 0-17.13 4.73-22.17 9.12V4.36H2.5v121.28h15.35V79.27c5 4.39 12.52 9.12 22.17 9.12 23.28 0 37.61-17.4 37.61-42.89S63.3 2.6 40 2.6zm-.6 80.78c-8.1 0-17.27-5-21.57-11.36V19c4.32-6.44 13.55-11.4 21.59-11.4 13 0 21.43 10.73 21.43 37.89s-8.47 37.9-21.43 37.9zm110.75-66.55c-1.64 0-3.27-.89-5.38-2.85l-5.58-5.18c-5.58-5.18-8-6.28-11.52-6.28s-7 2.27-11.1 6.48a74.16 74.16 0 0 0-8.16 9.68V4.36H93.06v82.27h15.35V25.52c4.73-6.43 9.36-11.28 14.31-11.28 2.88 0 4.35 1.19 7.84 4.42l5.58 5.18c3.27 3 4.86 4.54 8.16 4.54 4.32 0 9.78-8.51 11.58-12.21L154 14.72a5.33 5.33 0 0 1-3.85 2.11zM195.86 2.6c-23.55 0-38.61 17.4-38.61 42.89s15.06 42.89 38.61 42.89S234.48 71 234.48 45.49 219.41 2.6 195.86 2.6zm0 81.53c-13.68 0-22.11-11.38-22.11-38.64s8.43-38.64 22.11-38.64 22 11.38 22 38.64-8.31 38.65-22 38.65z" fill="#283333"/></svg>
